<?xml version="1.0" encoding="utf-8"?>
<svg viewBox="258.027 152.034 16.455 15.593" xmlns="http://www.w3.org/2000/svg">
  <g transform="matrix(-0.232605, -0.358181, 0.358181, -0.232605, 244.117401, 181.970993)" style="fill: rgb(51, 51, 51);">
    <path d="M 26.279 79.652 C 25.467 78.236 24.207 77.277 22.877 76.916 C 21.826 76.629 20.736 76.717 19.793 77.25 L 16.988 72.346 C 18.724 68.883 22.621 61.119 23.32 59.895 C 24.226 58.312 22.605 56.428 22.605 56.428 L 15.245 69.3 L 7.887 56.428 C 7.887 56.428 6.267 58.312 7.172 59.894 C 7.872 61.119 11.77 68.882 13.504 72.345 L 10.7 77.249 C 9.757 76.716 8.665 76.628 7.616 76.915 C 6.284 77.276 5.025 78.235 4.213 79.651 C 2.755 82.198 3.312 85.253 5.452 86.478 C 6.401 87.023 7.5 87.11 8.559 86.823 C 9.888 86.46 11.15 85.501 11.961 84.088 C 12.316 83.464 12.551 82.811 12.671 82.162 L 12.671 82.163 C 12.672 82.158 12.672 82.153 12.677 82.148 C 12.684 82.094 12.694 82.04 12.699 81.981 C 13.301 77.942 14.439 75.879 15.244 74.877 C 16.051 75.879 17.19 77.941 17.791 81.981 C 17.797 82.04 17.807 82.094 17.812 82.148 C 17.816 82.153 17.816 82.158 17.818 82.163 L 17.818 82.162 C 17.939 82.81 18.173 83.464 18.527 84.088 C 19.339 85.501 20.601 86.46 21.931 86.823 C 22.99 87.11 24.089 87.023 25.04 86.478 C 27.181 85.253 27.736 82.199 26.279 79.652 Z M 9.879 82.896 C 9.419 83.699 8.69 84.304 7.931 84.511 C 7.593 84.603 7.097 84.659 6.642 84.398 C 5.672 83.843 5.513 82.212 6.296 80.842 C 6.764 80.03 7.473 79.439 8.246 79.228 C 8.581 79.137 9.077 79.082 9.534 79.341 C 10.505 79.898 10.663 81.525 9.879 82.896 Z M 23.849 84.398 C 23.394 84.66 22.9 84.603 22.562 84.511 C 21.802 84.304 21.074 83.699 20.613 82.896 C 19.83 81.525 19.988 79.898 20.959 79.341 C 21.416 79.081 21.912 79.137 22.248 79.228 C 23.019 79.439 23.73 80.03 24.195 80.842 C 24.978 82.212 24.82 83.843 23.849 84.398 Z"/>
  </g>
</svg>