<?xml version="1.0" encoding="utf-8"?>
<svg viewBox="0 100 340.249 48.64" xmlns="http://www.w3.org/2000/svg">
  <path d="M 0 100 L 15.68 100 L 15.68 146.848 L 19.264 146.848 L 19.264 148 L 0.256 148 L 0.256 146.848 L 3.776 146.848 L 3.776 101.152 L 0 101.152 L 0 100 Z M 39.31 148.64 C 33.806 148.64 29.678 147.221 26.926 144.384 C 24.174 141.547 22.798 137.6 22.798 132.544 C 22.798 127.488 24.345 123.616 27.438 120.928 C 30.531 118.24 34.467 116.896 39.246 116.896 C 48.931 116.896 53.582 121.76 53.198 131.488 L 35.15 131.488 L 35.15 133.984 C 35.15 138.165 35.683 141.323 36.75 143.456 C 37.817 145.589 39.673 146.656 42.318 146.656 C 47.267 146.656 50.51 144.011 52.046 138.72 L 53.198 138.912 C 52.387 141.984 50.926 144.373 48.814 146.08 C 46.702 147.787 43.534 148.64 39.31 148.64 Z M 35.214 130.208 L 41.806 130.208 L 41.806 127.072 C 41.806 123.616 41.603 121.259 41.198 120 C 40.793 118.741 39.982 118.112 38.766 118.112 C 37.55 118.112 36.654 118.784 36.078 120.128 C 35.502 121.472 35.214 123.787 35.214 127.072 L 35.214 130.208 Z M 57.63 117.536 L 73.054 117.536 L 73.054 123.424 C 73.737 121.461 74.782 119.883 76.19 118.688 C 77.598 117.493 79.731 116.896 82.59 116.896 C 89.203 116.896 92.51 120.459 92.51 127.584 L 92.51 146.848 L 96.094 146.848 L 96.094 148 L 77.982 148 L 77.982 146.848 L 80.606 146.848 L 80.606 126.048 C 80.606 123.488 80.435 121.835 80.094 121.088 C 79.753 120.341 79.134 119.968 78.238 119.968 C 76.873 119.968 75.667 120.864 74.622 122.656 C 73.577 124.448 73.054 126.624 73.054 129.184 L 73.054 146.848 L 75.806 146.848 L 75.806 148 L 57.63 148 L 57.63 146.848 L 61.15 146.848 L 61.15 118.688 L 57.63 118.688 L 57.63 117.536 Z M 116.846 118.048 C 114.969 118.048 113.625 119.072 112.814 121.12 C 112.003 123.168 111.598 126.56 111.598 131.296 L 111.598 134.624 C 111.598 138.848 112.067 141.877 113.006 143.712 C 113.945 145.547 115.673 146.464 118.19 146.464 C 120.707 146.464 122.713 145.611 124.206 143.904 C 125.699 142.197 126.659 140.256 127.086 138.08 L 128.238 138.208 C 127.427 141.877 125.934 144.523 123.758 146.144 C 121.539 147.808 118.489 148.64 114.606 148.64 C 109.657 148.64 105.859 147.307 103.214 144.64 C 100.569 141.973 99.246 138.069 99.246 132.928 C 99.246 127.787 100.75 123.829 103.758 121.056 C 106.766 118.283 110.958 116.896 116.334 116.896 C 120.131 116.896 123.033 117.632 125.038 119.104 C 127.043 120.576 128.046 122.421 128.046 124.64 C 128.046 126.859 127.566 128.48 126.606 129.504 C 125.646 130.528 124.323 131.04 122.638 131.04 C 120.953 131.04 119.598 130.592 118.574 129.696 C 117.55 128.8 117.038 127.477 117.038 125.728 C 117.038 124.96 117.145 124.192 117.358 123.424 L 119.47 123.424 C 119.769 122.571 119.918 121.803 119.918 121.12 C 119.918 119.072 118.894 118.048 116.846 118.048 Z M 133.309 148.64 L 133.309 137.184 L 134.077 137.184 C 135.186 140.896 136.68 143.499 138.557 144.992 C 140.434 146.485 142.781 147.232 145.597 147.232 C 149.949 147.232 152.125 145.845 152.125 143.072 C 152.125 141.877 151.592 140.981 150.525 140.384 C 148.861 139.445 146.728 138.72 144.125 138.208 C 141.224 137.44 138.792 136.416 136.829 135.136 C 134.482 133.6 133.309 131.168 133.309 127.84 C 133.309 124.512 134.333 121.856 136.381 119.872 C 138.429 117.888 141.16 116.896 144.573 116.896 C 146.664 116.896 148.818 117.387 151.037 118.368 C 151.848 118.709 152.466 118.88 152.893 118.88 C 153.32 118.88 153.682 118.731 153.981 118.432 C 154.28 118.133 154.642 117.579 155.069 116.768 L 155.773 116.768 L 155.773 126.56 L 155.005 126.56 C 152.829 121.013 149.458 118.24 144.893 118.24 C 142.888 118.24 141.394 118.592 140.413 119.296 C 139.432 120 138.941 120.885 138.941 121.952 C 138.941 122.592 139.09 123.093 139.389 123.456 C 139.688 123.819 139.922 124.085 140.093 124.256 C 140.264 124.427 140.541 124.608 140.925 124.8 C 141.309 124.992 141.629 125.141 141.885 125.248 C 142.141 125.355 142.536 125.493 143.069 125.664 C 143.602 125.835 143.997 125.941 144.253 125.984 C 147.154 126.709 149.245 127.339 150.525 127.872 C 151.805 128.405 153.021 129.056 154.173 129.824 C 156.52 131.445 157.693 134.059 157.693 137.664 C 157.693 141.269 156.626 144 154.493 145.856 C 152.36 147.712 149.437 148.64 145.725 148.64 C 143.08 148.64 140.52 148.021 138.045 146.784 C 137.533 146.443 137.128 146.272 136.829 146.272 C 135.89 146.272 134.973 147.061 134.077 148.64 L 133.309 148.64 Z M 178.444 148.64 C 172.94 148.64 168.812 147.221 166.06 144.384 C 163.308 141.547 161.932 137.6 161.932 132.544 C 161.932 127.488 163.479 123.616 166.572 120.928 C 169.665 118.24 173.601 116.896 178.38 116.896 C 188.065 116.896 192.716 121.76 192.332 131.488 L 174.284 131.488 L 174.284 133.984 C 174.284 138.165 174.817 141.323 175.884 143.456 C 176.951 145.589 178.807 146.656 181.452 146.656 C 186.401 146.656 189.644 144.011 191.18 138.72 L 192.332 138.912 C 191.521 141.984 190.06 144.373 187.948 146.08 C 185.836 147.787 182.668 148.64 178.444 148.64 Z M 174.348 130.208 L 180.94 130.208 L 180.94 127.072 C 180.94 123.616 180.737 121.259 180.332 120 C 179.927 118.741 179.116 118.112 177.9 118.112 C 176.684 118.112 175.788 118.784 175.212 120.128 C 174.636 121.472 174.348 123.787 174.348 127.072 L 174.348 130.208 Z M 204.41 148.64 C 204.41 148.64 203.946 148.64 203.018 148.64 C 202.09 148.64 201.167 148.096 200.25 147.008 C 199.333 145.92 198.874 144.597 198.874 143.04 C 198.874 141.483 199.354 140.171 200.314 139.104 C 201.274 138.037 202.629 137.504 204.378 137.504 C 206.127 137.504 207.514 137.952 208.538 138.848 C 209.562 139.744 210.074 141.088 210.074 142.88 C 210.074 144.672 209.594 146.08 208.634 147.104 C 207.674 148.128 206.266 148.64 204.41 148.64 Z M 215.339 100 L 231.019 100 L 231.019 146.848 L 234.603 146.848 L 234.603 148 L 215.595 148 L 215.595 146.848 L 219.115 146.848 L 219.115 101.152 L 215.339 101.152 L 215.339 100 Z M 247.225 113.12 C 247.225 113.12 246.66 113.12 245.529 113.12 C 244.398 113.12 243.353 112.544 242.393 111.392 C 241.433 110.24 240.953 108.811 240.953 107.104 C 240.953 105.397 241.476 103.989 242.521 102.88 C 243.566 101.771 245.156 101.216 247.289 101.216 C 249.422 101.216 251.044 101.717 252.153 102.72 C 253.262 103.723 253.817 105.152 253.817 107.008 C 253.817 108.864 253.284 110.347 252.217 111.456 C 251.15 112.565 249.486 113.12 247.225 113.12 Z M 237.561 117.536 L 253.241 117.536 L 253.241 146.848 L 256.825 146.848 L 256.825 148 L 237.817 148 L 237.817 146.848 L 241.337 146.848 L 241.337 118.688 L 237.561 118.688 L 237.561 117.536 Z M 260.233 117.536 L 275.657 117.536 L 275.657 123.424 C 276.34 121.461 277.385 119.883 278.793 118.688 C 280.201 117.493 282.334 116.896 285.193 116.896 C 291.806 116.896 295.113 120.459 295.113 127.584 L 295.113 146.848 L 298.697 146.848 L 298.697 148 L 280.585 148 L 280.585 146.848 L 283.209 146.848 L 283.209 126.048 C 283.209 123.488 283.038 121.835 282.697 121.088 C 282.356 120.341 281.737 119.968 280.841 119.968 C 279.476 119.968 278.27 120.864 277.225 122.656 C 276.18 124.448 275.657 126.624 275.657 129.184 L 275.657 146.848 L 278.409 146.848 L 278.409 148 L 260.233 148 L 260.233 146.848 L 263.753 146.848 L 263.753 118.688 L 260.233 118.688 L 260.233 117.536 Z M 322.457 148 L 322.457 146.848 L 325.401 146.848 L 318.169 132 L 316.953 132.32 L 316.953 146.848 L 319.897 146.848 L 319.897 148 L 301.529 148 L 301.529 146.848 L 305.049 146.848 L 305.049 101.152 L 301.273 101.152 L 301.273 100 L 316.953 100 L 316.953 131.04 L 317.977 130.656 L 332.377 118.688 L 326.361 118.688 L 326.361 117.536 L 338.969 117.536 L 338.969 118.688 L 334.489 118.688 L 326.873 125.152 L 337.945 146.848 L 340.249 146.848 L 340.249 148 L 322.457 148 Z" style="stroke-width: 6px; white-space: pre; vector-effect: non-scaling-stroke; fill: rgb(51, 51, 51);"/>
  <path d="M 219.115 141.903 L 231.019 134.139 L 231.019 146.848 L 234.603 146.848 L 234.603 148 L 215.595 148 L 215.595 146.848 L 219.115 146.848 L 219.115 141.903 Z M 241.332 127.461 L 253.227 119.67 L 253.241 146.848 L 256.825 146.848 L 256.825 148 L 237.817 148 L 237.817 146.848 L 241.337 146.848 L 241.332 127.461 Z M 260.233 117.536 L 275.657 117.536 L 275.657 123.424 C 276.34 121.462 277.385 119.883 278.793 118.688 C 280.201 117.494 282.334 116.896 285.193 116.896 C 291.806 116.896 295.113 120.459 295.113 127.584 L 295.113 146.848 L 298.697 146.848 L 298.697 148 L 280.585 148 L 280.585 146.848 L 283.209 146.848 L 283.209 126.048 C 283.209 123.488 283.038 121.835 282.697 121.088 C 282.356 120.342 281.737 119.968 280.841 119.968 C 279.476 119.968 278.27 120.864 277.225 122.656 C 276.18 124.448 275.657 126.624 275.657 129.184 L 275.657 146.848 L 278.409 146.848 L 278.409 148 L 260.233 148 L 260.233 146.848 L 263.753 146.848 L 263.753 118.688 L 260.233 118.688 L 260.233 117.536 Z M 322.457 148 L 322.457 146.848 L 325.401 146.848 L 318.169 132 L 316.953 132.32 L 316.953 146.848 L 319.897 146.848 L 319.897 148 L 301.529 148 L 301.529 146.848 L 305.049 146.848 L 305.049 101.152 L 301.273 101.152 L 301.273 100 L 316.953 100 L 316.953 131.04 L 317.977 130.656 L 332.377 118.688 L 326.361 118.688 L 326.361 117.536 L 338.969 117.536 L 338.969 118.688 L 334.489 118.688 L 326.873 125.152 L 337.945 146.848 L 340.249 146.848 L 340.249 148 L 322.457 148 Z" style="white-space: pre; vector-effect: non-scaling-stroke; stroke: rgb(51, 51, 51); fill: rgb(255, 255, 255);"/>
  <path style="stroke-opacity: 1; stroke: rgb(51, 51, 51); stroke-dasharray: 3; stroke-width: 0.75px; fill: none;" d="M 270.615 129.393 L 205.925 129.49" transform="matrix(0.83867, -0.54464, 0.54464, 0.83867, -32.058909, 150.654176)"/>
  <g transform="matrix(-0.232605, -0.358181, 0.358181, -0.232605, 249.320694, 129.936615)" style="fill: rgb(51, 51, 51);">
    <path d="M 26.279 79.652 C 25.467 78.236 24.207 77.277 22.877 76.916 C 21.826 76.629 20.736 76.717 19.793 77.25 L 16.988 72.346 C 18.724 68.883 22.621 61.119 23.32 59.895 C 24.226 58.312 22.605 56.428 22.605 56.428 L 15.245 69.3 L 7.887 56.428 C 7.887 56.428 6.267 58.312 7.172 59.894 C 7.872 61.119 11.77 68.882 13.504 72.345 L 10.7 77.249 C 9.757 76.716 8.665 76.628 7.616 76.915 C 6.284 77.276 5.025 78.235 4.213 79.651 C 2.755 82.198 3.312 85.253 5.452 86.478 C 6.401 87.023 7.5 87.11 8.559 86.823 C 9.888 86.46 11.15 85.501 11.961 84.088 C 12.316 83.464 12.551 82.811 12.671 82.162 L 12.671 82.163 C 12.672 82.158 12.672 82.153 12.677 82.148 C 12.684 82.094 12.694 82.04 12.699 81.981 C 13.301 77.942 14.439 75.879 15.244 74.877 C 16.051 75.879 17.19 77.941 17.791 81.981 C 17.797 82.04 17.807 82.094 17.812 82.148 C 17.816 82.153 17.816 82.158 17.818 82.163 L 17.818 82.162 C 17.939 82.81 18.173 83.464 18.527 84.088 C 19.339 85.501 20.601 86.46 21.931 86.823 C 22.99 87.11 24.089 87.023 25.04 86.478 C 27.181 85.253 27.736 82.199 26.279 79.652 Z M 9.879 82.896 C 9.419 83.699 8.69 84.304 7.931 84.511 C 7.593 84.603 7.097 84.659 6.642 84.398 C 5.672 83.843 5.513 82.212 6.296 80.842 C 6.764 80.03 7.473 79.439 8.246 79.228 C 8.581 79.137 9.077 79.082 9.534 79.341 C 10.505 79.898 10.663 81.525 9.879 82.896 Z M 23.849 84.398 C 23.394 84.66 22.9 84.603 22.562 84.511 C 21.802 84.304 21.074 83.699 20.613 82.896 C 19.83 81.525 19.988 79.898 20.959 79.341 C 21.416 79.081 21.912 79.137 22.248 79.228 C 23.019 79.439 23.73 80.03 24.195 80.842 C 24.978 82.212 24.82 83.843 23.849 84.398 Z"/>
  </g>
</svg>